<mxfile host="app.diagrams.net" modified="2024-05-23T15:42:16.936Z" agent="Mozilla/5.0 (Windows NT 10.0; Win64; x64) AppleWebKit/537.36 (KHTML, like Gecko) Chrome/124.0.0.0 Safari/537.36" etag="U5SHrnk-wOyZuj3bM3oa" version="24.3.1" type="device">
  <diagram name="Page-1" id="_icSoFvGtDPuynj6DnW0">
    <mxGraphModel dx="1290" dy="522" grid="1" gridSize="10" guides="1" tooltips="1" connect="1" arrows="1" fold="1" page="1" pageScale="1" pageWidth="850" pageHeight="1100" math="0" shadow="0">
      <root>
        <mxCell id="0" />
        <mxCell id="1" parent="0" />
        <mxCell id="7HDXEM3YhQVoFdcD2ty3-1" value="&lt;font style=&quot;font-size: 14px;&quot;&gt;factorial(n)&lt;/font&gt;" style="text;html=1;align=center;verticalAlign=middle;resizable=0;points=[];autosize=1;strokeColor=none;fillColor=none;" vertex="1" parent="1">
          <mxGeometry x="305" y="110" width="90" height="30" as="geometry" />
        </mxCell>
        <mxCell id="7HDXEM3YhQVoFdcD2ty3-2" value="" style="endArrow=none;html=1;rounded=0;" edge="1" parent="1">
          <mxGeometry width="50" height="50" relative="1" as="geometry">
            <mxPoint x="270" y="190" as="sourcePoint" />
            <mxPoint x="320" y="140" as="targetPoint" />
          </mxGeometry>
        </mxCell>
        <mxCell id="7HDXEM3YhQVoFdcD2ty3-5" value="&lt;font style=&quot;font-size: 14px;&quot;&gt;factorial(n-1)&lt;/font&gt;" style="text;html=1;align=center;verticalAlign=middle;resizable=0;points=[];autosize=1;strokeColor=none;fillColor=none;" vertex="1" parent="1">
          <mxGeometry x="200" y="188" width="100" height="30" as="geometry" />
        </mxCell>
        <mxCell id="7HDXEM3YhQVoFdcD2ty3-6" value="" style="endArrow=none;html=1;rounded=0;" edge="1" parent="1">
          <mxGeometry width="50" height="50" relative="1" as="geometry">
            <mxPoint x="200" y="268" as="sourcePoint" />
            <mxPoint x="250" y="218" as="targetPoint" />
          </mxGeometry>
        </mxCell>
        <mxCell id="7HDXEM3YhQVoFdcD2ty3-7" value="&lt;font style=&quot;font-size: 14px;&quot;&gt;factorial(n-2)&lt;/font&gt;" style="text;html=1;align=center;verticalAlign=middle;resizable=0;points=[];autosize=1;strokeColor=none;fillColor=none;" vertex="1" parent="1">
          <mxGeometry x="150" y="268" width="100" height="30" as="geometry" />
        </mxCell>
        <mxCell id="7HDXEM3YhQVoFdcD2ty3-9" value="" style="endArrow=none;html=1;rounded=0;" edge="1" parent="1">
          <mxGeometry width="50" height="50" relative="1" as="geometry">
            <mxPoint x="140" y="348" as="sourcePoint" />
            <mxPoint x="190" y="298" as="targetPoint" />
          </mxGeometry>
        </mxCell>
        <mxCell id="7HDXEM3YhQVoFdcD2ty3-10" value="&lt;font size=&quot;3&quot;&gt;. . .&lt;/font&gt;" style="text;html=1;align=center;verticalAlign=middle;resizable=0;points=[];autosize=1;strokeColor=none;fillColor=none;" vertex="1" parent="1">
          <mxGeometry x="110" y="340" width="50" height="30" as="geometry" />
        </mxCell>
        <mxCell id="7HDXEM3YhQVoFdcD2ty3-11" value="" style="endArrow=none;html=1;rounded=0;" edge="1" parent="1">
          <mxGeometry width="50" height="50" relative="1" as="geometry">
            <mxPoint x="80" y="420" as="sourcePoint" />
            <mxPoint x="130" y="370" as="targetPoint" />
          </mxGeometry>
        </mxCell>
        <mxCell id="7HDXEM3YhQVoFdcD2ty3-12" value="&lt;font size=&quot;3&quot;&gt;factorial(1)&lt;/font&gt;" style="text;html=1;align=center;verticalAlign=middle;resizable=0;points=[];autosize=1;strokeColor=none;fillColor=none;" vertex="1" parent="1">
          <mxGeometry x="10" y="418" width="100" height="30" as="geometry" />
        </mxCell>
      </root>
    </mxGraphModel>
  </diagram>
</mxfile>
